HIERARCHY
ROOT Hips
{
    OFFSET 0.0 0.0 0.0
    CHANNELS 6 Xposition Yposition Zposition Zrotation Xrotation Yrotation
    JOINT Spine
    {
        OFFSET 0.0 5.0 0.0
        CHANNELS 3 Zrotation Xrotation Yrotation
        JOINT Chest
        {
            OFFSET 0.0 5.0 0.0
            CHANNELS 3 Zrotation Xrotation Yrotation
            JOINT Neck
            {
                OFFSET 0.0 8.0 0.0
                CHANNELS 3 Zrotation Xrotation Yrotation
                JOINT Head
                {
                    OFFSET 0.0 5.0 0.0
                    CHANNELS 3 Zrotation Xrotation Yrotation
                    End Site
                    {
                        OFFSET 0.0 3.0 0.0
                    }
                }
            }
            JOINT LeftShoulder
            {
                OFFSET -5.0 0.0 0.0
                CHANNELS 3 Zrotation Xrotation Yrotation
                JOINT LeftArm
                {
                    OFFSET 0.0 -10.0 0.0
                    CHANNELS 3 Zrotation Xrotation Yrotation
                    JOINT LeftForeArm
                    {
                        OFFSET 0.0 -10.0 0.0
                        CHANNELS 3 Zrotation Xrotation Yrotation
                        End Site
                        {
                            OFFSET 0.0 -3.0 0.0
                        }
                    }
                }
            }
        }
    }
}

MOTION
Frames: 44
Frame Time: 0.033333
970.000000 442.938926 114.625266 0.000000 0.000000 0.000000 0.000000 0.000000 0.000000 29.678605 -12.718167 0.000000 180.000000 14.485541 0.000000 29.744881 -9.818873 -0.000000 150.255119 4.795242 30.000000 19.983107 4.628640 0.000000 18.000000 -0.998873 0.000000
1354.522934 467.411410 129.965834 0.000000 0.000000 0.000000 0.000000 0.000000 0.000000 150.622570 2.761571 4.973798 -29.377430 -5.753759 4.973798 140.176400 7.734269 3.759997 -12.221629 2.875759 29.763441 132.794256 -1.788551 -3.759997 -2.626015 0.083030 0.313953
969.997807 442.887864 133.832698 0.000000 0.000000 0.000000 0.000000 0.000000 0.000000 31.061399 29.691281 9.635073 180.000000 -4.419997 9.635073 30.285790 -8.551252 7.460697 149.714210 -6.842703 29.057495 19.151579 -6.432473 -7.460697 18.000000 0.372434 0.626666
1246.736984 514.278152 112.639184 0.000000 0.000000 0.000000 0.000000 0.000000 0.000000 143.557092 1.601085 13.690942 -36.442908 -7.631286 13.690942 133.761037 1.214119 11.043737 -156.950665 -5.963394 27.893295 0.000000 0.000000 0.000000 1.928484 0.452049 0.936907
1245.221100 458.637464 118.364957 0.000000 0.000000 0.000000 0.000000 0.000000 0.000000 160.701064 34.696469 16.886559 -19.298936 -6.736450 16.886559 140.193827 -2.848335 14.452610 -157.554825 -5.823342 26.289200 29.500467 5.069800 -14.452610 -15.049953 -0.506980 1.243449
1257.365570 418.514181 106.946460 0.000000 0.000000 0.000000 0.000000 0.000000 0.000000 -143.710676 -1.443749 19.021130 36.289324 -3.635412 19.021130 163.220413 -2.430561 17.633558 11.688054 -3.330233 24.270510 152.038385 1.462579 -17.633558 -2.339948 0.015461 1.545085
1275.099564 408.163741 99.226907 0.000000 0.000000 0.000000 0.000000 0.000000 0.000000 -132.929531 6.259422 19.960535 47.070469 -7.675622 19.960535 173.491912 4.528081 20.536413 -160.709681 -5.294935 21.869059 33.138793 4.835161 -20.536413 -14.686121 -0.483516 1.840623
1290.611115 384.880857 82.886729 0.000000 0.000000 0.000000 0.000000 0.000000 0.000000 -132.705235 1.133842 19.645745 47.294765 -1.320449 19.645745 -173.778854 5.027808 23.115397 20.496835 1.918652 19.122720 -161.220290 -4.191123 -23.115397 1.723235 0.369635 2.128896
1302.817154 380.305352 85.596138 0.000000 0.000000 0.000000 0.000000 0.000000 0.000000 -131.493915 -1.504783 18.096541 48.506085 -4.796204 18.096541 -165.393697 -1.948626 25.329838 23.154815 -6.467954 16.074804 -178.200316 3.081945 -25.329838 0.138141 -0.087758 2.408768
1304.997711 379.563582 94.379618 0.000000 0.000000 0.000000 0.000000 0.000000 0.000000 -126.727972 8.093334 15.410265 53.272028 -2.782516 15.410265 -160.219593 -0.787532 27.144812 28.448880 2.262484 12.773379 -174.368770 -1.596832 -27.144812 0.079526 0.132791 2.679134
1311.668472 386.890390 80.440306 0.000000 0.000000 0.000000 0.000000 0.000000 0.000000 -122.308728 -14.953882 11.755705 57.691272 2.979267 11.755705 -158.801130 0.622855 28.531695 150.942637 8.368162 9.270510 -154.878332 -5.464720 -28.531695 2.695409 0.613738 2.938926
1305.131836 395.180186 83.602237 0.000000 0.000000 0.000000 0.000000 0.000000 0.000000 -125.112810 -11.038108 7.362491 54.887190 15.747966 7.362491 -146.487292 -5.362233 29.468618 -175.167369 -2.560324 5.621439 -159.224034 -3.614510 -29.468618 1.782042 0.572715 3.187120
1296.320457 392.734526 93.666286 0.000000 0.000000 0.000000 0.000000 0.000000 0.000000 -131.035750 -0.300805 2.506665 48.964250 0.299542 2.506665 -128.969563 -1.697446 29.940802 38.856147 -0.458742 1.883716 -134.776850 1.912604 -29.940802 3.458429 -0.259683 3.422736
1306.963577 386.612041 75.036727 0.000000 0.000000 0.000000 0.000000 0.000000 0.000000 -124.469622 4.375961 -2.506665 55.530378 -4.025359 -2.506665 -109.994856 6.054838 29.940802 37.691309 0.785094 -1.883716 -118.274788 -0.940694 -29.940802 5.098336 0.042599 3.644843
969.892723 442.572198 66.965911 0.000000 0.000000 0.000000 0.000000 0.000000 0.000000 41.287575 -6.520576 -7.362491 180.000000 3.013522 -7.362491 30.974696 -11.460730 29.468618 149.025304 2.194462 -5.621439 15.072869 -1.267225 -29.468618 18.000000 -0.259908 3.852566
969.876883 442.545207 63.894687 0.000000 0.000000 0.000000 0.000000 0.000000 0.000000 42.241956 -30.982441 -11.755705 180.000000 11.680299 -11.755705 30.826133 -0.423422 28.531695 149.173867 5.615720 -9.270510 14.823070 7.535400 -28.531695 18.000000 -0.408694 4.045085
969.859960 442.518116 73.072703 0.000000 0.000000 0.000000 0.000000 0.000000 0.000000 43.199779 -31.129068 -15.410265 180.000000 8.863836 -15.410265 30.649504 7.758005 27.144812 149.350496 -2.151170 -12.773379 14.587557 11.330366 -27.144812 18.000000 -0.801689 4.221640
969.841956 442.490926 57.799290 0.000000 0.000000 0.000000 0.000000 0.000000 0.000000 44.157210 28.211130 -18.096541 180.000000 0.425755 -18.096541 30.446417 -13.601389 25.329838 149.553583 -19.184498 -16.074804 14.366154 6.455597 -25.329838 18.000000 -0.134588 4.381533
969.822873 442.463637 65.111821 0.000000 0.000000 0.000000 0.000000 0.000000 0.000000 45.110117 -14.967513 -19.645745 180.000000 2.581698 -19.645745 30.218633 -9.825353 23.115397 149.781367 -9.586271 -19.122720 14.158653 5.846403 -23.115397 18.000000 -0.209566 4.524135
969.802712 442.436251 32.272476 0.000000 0.000000 0.000000 0.000000 0.000000 0.000000 46.054109 12.820327 -19.960535 180.000000 -3.866669 -19.960535 29.968037 9.732638 20.536413 150.031963 0.223687 -21.869059 13.964823 1.819616 -20.536413 18.000000 -0.221488 4.648882
1187.040939 541.658249 55.906924 0.000000 0.000000 0.000000 0.000000 0.000000 0.000000 82.806623 -12.769389 -19.021130 -97.193377 6.783651 -19.021130 45.395981 -8.126910 17.633558 -156.144455 -2.345242 -24.270510 0.000000 0.000000 0.000000 0.000000 0.000000 0.000000
1182.242889 522.024286 60.219879 0.000000 0.000000 0.000000 0.000000 0.000000 0.000000 -105.721938 14.886385 -16.886559 74.278062 10.768445 -16.886559 -155.708006 -2.733164 14.452610 -157.302521 -2.400762 -26.289200 0.000000 0.000000 0.000000 2.684983 0.153723 4.842916
1180.914459 527.065626 40.970731 0.000000 0.000000 0.000000 0.000000 0.000000 0.000000 88.055617 0.318824 -13.690942 -91.944383 -6.922833 -13.690942 -158.862018 -2.283427 11.043737 -151.747289 -3.080101 -27.893295 0.000000 0.000000 0.000000 0.000000 0.000000 0.000000
1236.800194 541.387432 39.508323 0.000000 0.000000 0.000000 0.000000 0.000000 0.000000 -85.588400 -6.761408 -9.635073 94.411600 5.190709 -9.635073 -159.297106 -10.013433 7.460697 -157.915391 -2.264192 -29.057495 26.607362 2.342404 -7.460697 14.926890 0.758717 4.960574
1161.066513 575.006626 51.792691 0.000000 0.000000 0.000000 0.000000 0.000000 0.000000 -81.021168 -14.354596 -4.973798 98.978832 8.843449 -4.973798 -102.851701 1.116207 3.759997 -157.041007 -1.657180 -29.763441 21.429890 2.787465 -3.759997 10.859432 -0.419435 4.990134
1255.636253 512.645942 53.117347 0.000000 0.000000 0.000000 0.000000 0.000000 0.000000 77.832564 0.363466 -0.000000 -102.167436 -10.702454 -0.000000 -158.264834 -1.226846 0.000000 -130.745502 1.484688 -30.000000 -157.699225 -3.294388 -0.000000 0.000000 0.000000 0.000000
1265.118484 521.473864 41.455764 0.000000 0.000000 0.000000 0.000000 0.000000 0.000000 64.078276 -2.277391 4.973798 -115.921724 -4.624122 4.973798 41.397952 1.728555 -3.759997 -139.329851 -0.496360 -29.763441 20.223252 -0.396656 3.759997 -16.047574 0.047014 4.990134
1228.099480 522.138258 54.970076 0.000000 0.000000 0.000000 0.000000 0.000000 0.000000 71.050901 -1.715171 9.635073 -108.949099 3.210638 9.635073 150.099970 6.462819 -7.460697 -139.894702 2.130136 -29.057495 -156.275691 -3.263712 7.460697 0.000000 0.000000 0.000000
1240.357246 528.695873 53.063406 0.000000 0.000000 0.000000 0.000000 0.000000 0.000000 65.413351 -14.592143 13.690942 -114.586649 8.108650 13.690942 147.242328 16.947766 -11.043737 -154.470720 -1.923823 -27.893295 25.557225 2.352391 11.043737 -15.444278 -0.235239 4.911436
1231.815262 551.380248 46.905301 0.000000 0.000000 0.000000 0.000000 0.000000 0.000000 56.412506 13.459610 16.886559 -123.587494 -7.454945 16.886559 -153.392336 3.541174 -14.452610 -154.784582 -2.641034 -26.289200 24.191555 4.039836 14.452610 -15.580844 -0.403984 4.842916
1221.475182 508.360147 56.761159 0.000000 0.000000 0.000000 0.000000 0.000000 0.000000 77.450622 -8.647445 19.021130 -102.549378 4.901787 19.021130 -156.789784 -3.138048 -17.633558 -125.590168 0.805088 -24.270510 -160.017240 -3.400259 17.633558 1.833434 0.408990 4.755283
969.477684 442.100429 49.050767 0.000000 0.000000 0.000000 0.000000 0.000000 0.000000 54.932575 -53.393969 19.960535 180.000000 11.566863 19.960535 25.919122 0.557789 -20.536413 154.080878 2.634996 -21.869059 12.612867 3.127052 20.536413 18.000000 -0.191381 4.648882
1480.140495 518.878891 55.137478 0.000000 0.000000 0.000000 0.000000 0.000000 0.000000 -110.621767 82.622892 19.645745 69.378233 -84.723610 19.645745 -158.235933 -2.556741 -23.115397 166.031448 1.995383 -19.122720 -155.186432 -3.232059 23.115397 2.641553 0.238404 4.524135
1271.640472 556.840560 91.862937 0.000000 0.000000 0.000000 0.000000 0.000000 0.000000 -94.404719 -5.012687 18.096541 85.595281 1.705652 18.096541 -62.417786 -1.156551 -25.329838 23.992813 -1.496678 -16.074804 -76.856107 -1.139952 25.329838 7.708835 -0.022728 4.381533
1258.556786 530.268441 80.365619 0.000000 0.000000 0.000000 0.000000 0.000000 0.000000 78.355945 -15.595850 15.410265 -101.644055 11.595342 15.410265 35.068294 2.613854 -27.144812 -54.090640 1.232129 -12.773379 35.848220 7.662560 27.144812 -8.104639 0.208300 4.221640
1250.800209 527.150567 76.967704 0.000000 0.000000 0.000000 0.000000 0.000000 0.000000 72.417769 -8.119957 11.755705 -107.582231 -0.075164 11.755705 24.571109 0.401351 -28.531695 -39.196117 2.611307 -9.270510 10.411117 5.373638 28.531695 -9.048616 -5.014746 4.045085
1243.466148 571.776259 89.426382 0.000000 0.000000 0.000000 0.000000 0.000000 0.000000 86.301473 2.651540 7.362491 -93.698527 -6.321878 7.362491 24.553534 0.641537 -29.468618 -153.460385 -3.553651 -5.621439 19.510484 2.982510 29.468618 -10.109500 -1.980471 3.852566
1261.883812 566.052918 97.901461 0.000000 0.000000 0.000000 0.000000 0.000000 0.000000 94.015209 -18.232507 2.506665 -85.984791 -5.724637 2.506665 38.959993 11.518056 -29.940802 -154.008305 -3.551891 -1.883716 20.870951 3.536665 29.940802 -10.872440 0.220246 3.644843
1284.436798 527.190542 112.981529 0.000000 0.000000 0.000000 0.000000 0.000000 0.000000 111.186365 -7.337620 -2.506665 -68.813635 0.785138 -2.506665 58.506163 -3.092254 -29.940802 -19.138727 -5.060927 1.883716 51.457372 0.723679 29.940802 -5.203198 0.617770 3.422736
1272.860069 533.494012 113.814260 0.000000 0.000000 0.000000 0.000000 0.000000 0.000000 72.301471 -23.784829 -7.362491 -107.698529 10.923286 -7.362491 78.802573 1.592862 -29.468618 -154.772375 -4.349901 5.621439 26.927455 4.078212 29.468618 -15.307255 -0.407821 3.187120
1255.264664 498.243735 112.139215 0.000000 0.000000 0.000000 0.000000 0.000000 0.000000 164.596971 -58.282421 -11.755705 -15.403029 37.721485 -11.755705 125.849126 2.018684 -28.531695 -156.067666 -4.407326 9.270510 33.087561 5.078010 28.531695 -14.691244 -0.507801 2.938926
1259.202232 470.407684 114.178138 0.000000 0.000000 0.000000 0.000000 0.000000 0.000000 -139.980397 17.220598 -15.410265 40.019603 -5.328747 -15.410265 165.887722 2.679500 -27.144812 -157.901492 -5.434685 12.773379 35.196094 5.132327 27.144812 -14.480391 -0.513233 2.679134
1236.502075 429.951335 112.731164 0.000000 0.000000 0.000000 0.000000 0.000000 0.000000 -113.295066 6.702974 -18.096541 66.704934 9.639182 -18.096541 -174.664169 -5.290694 -25.329838 -159.007335 -5.509107 16.074804 32.868990 5.967573 25.329838 -14.713101 -0.596757 2.408768
1253.359451 413.942538 115.529084 0.000000 0.000000 0.000000 0.000000 0.000000 0.000000 -123.348580 11.543864 -19.645745 56.651420 -12.670111 -19.645745 -167.815074 9.300224 -23.115397 -159.603180 -5.972121 19.122720 32.791747 6.733624 23.115397 -14.720825 -0.673362 2.128896
